<?xml version="1.0" encoding="iso-8859-1"?>
<!-- Generator: Adobe Illustrator 19.0.0, SVG Export Plug-In . SVG Version: 6.00 Build 0)  -->
<svg version="1.1" id="Capa_1" xmlns="http://www.w3.org/2000/svg" xmlns:xlink="http://www.w3.org/1999/xlink" x="0px" y="0px"
	 viewBox="0 0 504.813 504.813" style="enable-background:new 0 0 504.813 504.813;" xml:space="preserve">
<g transform="translate(0 -1)">
	<path style="fill:#FFA800;" d="M260.597,477.866c2.938-2.098,5.791-4.449,8.561-6.799c11.983,10.803,26.239,18.777,41.715,23.334
		c4.234,1.167,8.557,1.981,12.926,2.434c54.473,6.295,100.134-41.38,122.628-91.489c13.262-29.56,23.416-60.417,30.3-92.076
		c7.386-34.245,14.437-73.694,8.729-108.779c-5.411-32.406-21.234-62.166-45.073-84.774
		c-44.317-41.883-105.422-59.929-163.42-59.929h-0.755L260.597,477.866z"/>
	<path style="fill:#FFFFFF;" d="M242.624,59.789h0.779c57.961,0,119.116,18.046,163.366,59.929
		c23.863,22.594,39.7,52.359,45.107,84.774c5.687,35.085-1.324,74.534-8.725,108.779c-6.879,31.661-17.035,62.519-30.305,92.076
		c-24.228,54.054-58.625,105.17-118.767,89.054c-15.467-4.555-29.711-12.53-41.68-23.334
		c-12.309,10.576-43.041,19.221-58.466,23.334C133.791,510.516,82.607,459.4,58.379,405.347
		c-13.27-29.557-23.427-60.415-30.305-92.076c-7.401-34.245-14.412-73.694-8.725-108.779c5.407-32.415,21.244-62.179,45.107-84.774
		c13.476-12.693,28.626-23.481,45.029-32.063L242.624,59.789z"/>
	<path style="fill:#FEDD0A;" d="M259.17,59.789h0.755c5.624,0,11.331,0.168,17.039,0.588c52.253,2.444,101.91,23.491,140.003,59.342
		c23.111,22.925,38.312,52.62,43.394,84.774c5.456,35.085-1.259,74.534-8.393,108.779c-6.638,31.58-16.394,62.423-29.125,92.076
		c-18.969,43.982-55.061,86.033-99.043,91.489c-10.493,1.3-21.141,0.472-31.308-2.434c-11.594-3.413-22.423-9.027-31.895-16.535
		c-2.854-2.098-5.54-4.449-8.226-6.799c-11.38,10.745-25.079,18.728-40.037,23.334c-4.77,1.366-9.661,2.265-14.605,2.686
		c-51.452,4.7-94.51-42.303-115.746-91.74c-12.806-29.625-22.565-60.476-29.125-92.076c-7.134-34.245-13.849-73.694-8.393-108.779
		c5.046-32.165,20.252-61.872,43.394-84.774c12.864-12.627,27.41-23.417,43.226-32.063L259.17,59.789z"/>
	<path style="fill:#FFA800;" d="M317.573,145.76c-9.251,4.904-19.123,8.535-29.348,10.793c-11.792,2.668-23.848,3.995-35.938,3.958
		c-12.09,0.038-24.146-1.29-35.938-3.958c-10.224-2.258-20.096-5.888-29.347-10.793H317.573z"/>
	<path style="fill:#15A143;" d="M252.288,87.487c-12.382,14.668-29.635,24.383-48.598,27.363
		c-13.171,1.882-26.603,0.498-39.113-4.029c-55.649-18.885-87.125-82.843-87.125-82.843s2.771-1.343,7.639-3.357
		c0.067-0.065,0.159-0.095,0.251-0.084c18.801-7.554,67.819-23.921,111.632-9.065C228.77,25.386,250.908,54.209,252.288,87.487
		L252.288,87.487z"/>
	<g>
		
			<ellipse transform="matrix(-0.2082 0.9781 -0.9781 -0.2082 301.8975 161.9433)" style="fill:#FFA800;" cx="85.399" cy="203.171" rx="34.606" ry="25.734"/>
		<ellipse style="fill:#FFA800;" cx="89.159" cy="296.32" rx="21.529" ry="25.26"/>
	</g>
	<path style="fill:#FEDD0A;" d="M292.393,145.76c-9.251,4.904-19.123,8.535-29.348,10.793c-11.792,2.668-23.848,3.995-35.938,3.958
		c-12.09,0.038-24.146-1.29-35.938-3.958c-10.224-2.258-20.096-5.888-29.347-10.793H292.393z"/>
	<path style="fill:#1CD759;" d="M227.107,95.88c-6.496,7.788-14.451,14.231-23.418,18.969c-13.171,1.882-26.603,0.498-39.113-4.029
		c-55.649-18.885-87.125-82.843-87.125-82.843s2.771-1.343,7.639-3.357c0.067-0.065,0.159-0.095,0.251-0.084
		c28.146-8.58,58.176-8.813,86.452-0.671C203.59,33.78,225.728,62.603,227.107,95.88L227.107,95.88z"/>
	<g>
		<path d="M19.656,210.871c-0.528-0.001-1.055-0.05-1.574-0.148c-4.553-0.866-7.543-5.258-6.68-9.811
			c6.847-33.988,24.754-64.752,50.926-87.492c15.241-13.28,32.179-24.476,50.369-33.295c2.693-1.335,5.894-1.127,8.393,0.544
			c2.498,1.671,3.912,4.551,3.705,7.55c-0.206,2.999-2.001,5.658-4.705,6.971c-16.85,8.166-32.542,18.532-46.664,30.828
			c-23.379,20.265-39.389,47.701-45.533,78.025C27.142,208,23.685,210.866,19.656,210.871z"/>
		<path d="M183.14,505.813c-56.82,0-104.697-45.746-129.361-96.82c-14.509-29.944-25.664-61.4-33.262-93.795
			c-2.812-12.074-6.336-28-8.754-44.344c-0.679-4.586,2.488-8.854,7.074-9.533s8.854,2.488,9.533,7.074
			c2.328,15.746,5.762,31.238,8.492,42.975c7.318,31.191,18.058,61.478,32.025,90.312c25.434,52.672,77.508,99.262,136.475,84.574
			c15.3-4.171,29.522-11.591,41.697-21.754c3.059-2.443,7.4-2.443,10.459,0c12.173,10.161,26.391,17.581,41.689,21.754
			c58.967,14.631,111.041-31.902,136.475-84.557c13.974-28.845,24.717-59.147,32.033-90.352c8.23-35.311,15.049-72.541,9.303-105.41
			c-5.797-31.072-21.976-59.253-45.885-79.926c-41.828-36.746-103.959-57.828-170.451-57.828c-4.719,0.034-8.616-3.678-8.811-8.393
			c-0.095-2.182,0.7-4.308,2.205-5.891c1.504-1.583,3.587-2.486,5.771-2.502h0.836c71.549,0,136.025,22.024,181.549,62.016
			c26.771,23.205,44.869,54.813,51.328,89.648c6.262,35.82-0.869,75.049-9.5,112.115c-7.596,32.41-18.754,63.88-33.271,93.836
			c-28.377,58.763-87.533,110.475-155.623,93.541c-15.523-4.102-30.09-11.209-42.877-20.918
			c-12.789,9.711-27.359,16.818-42.885,20.918C200.814,504.706,191.994,505.802,183.14,505.813z"/>
		<path d="M17.271,244.444c-2.251,0.029-4.411-0.883-5.959-2.516c-0.756-0.774-1.355-1.687-1.763-2.688
			c-0.472-0.995-0.702-2.088-0.671-3.189c0.014-0.563,0.069-1.125,0.164-1.68c0.095-0.525,0.266-1.033,0.508-1.508
			c0.181-0.537,0.435-1.048,0.754-1.516l1.008-1.254c3.365-3.107,8.553-3.107,11.918,0c1.532,1.609,2.402,3.737,2.435,5.959
			c-0.044,2.195-0.913,4.293-2.434,5.877C21.68,243.559,19.521,244.471,17.271,244.444z"/>
		<path d="M252.288,168.903c-12.724,0.043-25.411-1.357-37.82-4.172c-10.972-2.424-21.564-6.329-31.484-11.607
			c-4.049-2.228-5.534-7.311-3.323-11.369c2.212-4.058,7.288-5.564,11.355-3.369c8.579,4.548,17.737,7.906,27.221,9.984
			c22.428,4.967,45.671,4.967,68.098,0c9.485-2.077,18.643-5.436,27.221-9.984c4.067-2.195,9.143-0.689,11.355,3.369
			s0.726,9.14-3.323,11.369c-9.92,5.278-20.512,9.182-31.484,11.607C277.698,167.547,265.011,168.946,252.288,168.903
			L252.288,168.903z"/>
		<path d="M252.279,168.903c-4.215-0.005-7.774-3.132-8.32-7.311c-0.721-5.582-16.77-136.934,64.779-160.238
			c4.459-1.272,9.105,1.311,10.377,5.77s-1.311,9.105-5.77,10.377c-67.803,19.369-52.893,140.705-52.73,141.926
			c0.59,4.597-2.65,8.806-7.246,9.41C253.007,168.88,252.643,168.902,252.279,168.903L252.279,168.903z"/>
		<path d="M192.435,124.075c-10.419-0.064-20.756-1.853-30.59-5.295c-58.246-19.828-90.549-84.336-91.893-87.073
			c-2.044-4.16-0.331-9.19,3.828-11.238c2.73-1.344,67.672-32.754,125.934-12.918l0,0c35.054,11.296,59.376,43.214,60.967,80.008
			c-0.011,1.819-0.612,3.585-1.713,5.033C242.351,112.167,218.109,123.639,192.435,124.075L192.435,124.075z M89.329,32.026
			c10.09,16.984,37.484,57.098,77.926,70.869c26.84,10.155,57.159,2.904,76.5-18.295c-2.41-28.588-22.001-52.82-49.451-61.164l0,0
			C153.738,9.649,107.665,24.715,89.329,32.026z"/>
		<path d="M82.206,245.838c-1.926,0.002-3.846-0.199-5.73-0.598c-18.402-3.918-29.361-25.975-24.434-49.164
			c4.943-23.189,23.869-38.869,42.336-34.959c9.71,2.362,17.719,9.199,21.574,18.418c4.199,9.684,5.198,20.455,2.852,30.746l0,0
			c-2.047,10.355-7.349,19.786-15.131,26.918C97.809,242.598,90.175,245.671,82.206,245.838L82.206,245.838z M88.558,177.297
			c-8.533,0-17.377,9.533-20.09,22.27c-2.959,13.902,2.311,27.295,11.5,29.246c4.632,0.638,9.296-0.92,12.615-4.213
			c5.048-4.766,8.473-10.996,9.795-17.811h0.008c1.565-6.766,0.971-13.851-1.697-20.262c-1.706-4.347-5.324-7.663-9.804-8.984
			C90.121,177.379,89.34,177.297,88.558,177.297z"/>
		<path d="M89.156,329.993c-17.525-1.116-30.876-16.146-29.918-33.68c-0.958-17.534,12.393-32.564,29.918-33.68
			c17.525,1.116,30.876,16.146,29.918,33.68C120.032,313.847,106.681,328.877,89.156,329.993L89.156,329.993z M89.156,279.42
			c-8.214,1.172-14.022,8.644-13.131,16.894c-0.891,8.25,4.917,15.721,13.131,16.893c8.214-1.172,14.022-8.644,13.131-16.893
			C103.178,288.064,97.371,280.592,89.156,279.42L89.156,279.42z"/>
		<path d="M378.189,445.887c-2.233,0.022-4.381-0.855-5.959-2.434c-0.74-0.817-1.336-1.754-1.763-2.771
			c-0.896-2.031-0.896-4.346,0-6.377c0.425-1.018,1.021-1.955,1.763-2.771c0.802-0.759,1.743-1.358,2.771-1.763
			c1.53-0.673,3.233-0.851,4.869-0.508c0.525,0.096,1.033,0.267,1.508,0.508c0.535,0.181,1.042,0.435,1.508,0.754
			c0.441,0.311,0.862,0.647,1.263,1.008c0.742,0.816,1.338,1.753,1.763,2.77c0.896,2.031,0.896,4.346,0,6.377
			c-0.427,1.017-1.023,1.953-1.763,2.771C382.568,445.029,380.421,445.906,378.189,445.887L378.189,445.887z"/>
		<path d="M394.976,412.313c-1.097-0.013-2.18-0.242-3.188-0.672c-1.028-0.405-1.968-1.003-2.771-1.763
			c-1.579-1.578-2.457-3.726-2.434-5.959c-0.031-1.101,0.2-2.194,0.672-3.188c0.425-1.018,1.021-1.955,1.763-2.771
			c1.981-1.967,4.812-2.819,7.549-2.27c0.557,0.082,1.097,0.254,1.598,0.508c0.516,0.165,0.999,0.421,1.426,0.754
			c0.481,0.289,0.932,0.627,1.344,1.008c0.742,0.816,1.338,1.753,1.763,2.77c1.34,3.123,0.642,6.747-1.763,9.148
			c-0.817,0.74-1.754,1.336-2.771,1.763C397.156,412.072,396.073,412.3,394.976,412.313L394.976,412.313z"/>
		<path d="M361.402,412.313c-2.233,0.022-4.38-0.856-5.959-2.434c-1.579-1.579-2.456-3.726-2.434-5.959
			c0.029-2.223,0.899-4.352,2.434-5.959c0.789-0.777,1.733-1.378,2.77-1.763c3.125-1.319,6.737-0.623,9.148,1.763
			c0.742,0.816,1.338,1.753,1.763,2.77c0.896,2.031,0.896,4.346,0,6.377c-0.764,2.108-2.424,3.768-4.532,4.532
			C363.582,412.071,362.499,412.299,361.402,412.313z"/>
		<path d="M344.615,445.887c-1.097-0.014-2.18-0.242-3.189-0.672c-1.018-0.425-1.955-1.021-2.771-1.763
			c-0.765-0.816-1.39-1.752-1.852-2.771c-0.402-1.014-0.599-2.098-0.582-3.188c0.029-2.223,0.899-4.352,2.434-5.959
			c2.411-2.386,6.023-3.082,9.148-1.763c1.017,0.427,1.953,1.023,2.77,1.763c0.759,0.802,1.358,1.743,1.763,2.77
			c0.896,2.031,0.896,4.346,0,6.377c-0.764,2.108-2.424,3.768-4.532,4.532C346.795,445.645,345.712,445.873,344.615,445.887
			L344.615,445.887z"/>
		<path d="M378.189,378.739c-2.233,0.022-4.381-0.855-5.959-2.434c-0.74-0.817-1.336-1.754-1.763-2.77
			c-0.43-1.009-0.658-2.092-0.672-3.189c0.029-2.223,0.899-4.352,2.434-5.959c0.802-0.759,1.743-1.358,2.771-1.763
			c1.53-0.673,3.233-0.851,4.869-0.508c0.525,0.096,1.033,0.267,1.508,0.508c0.535,0.181,1.042,0.435,1.508,0.754
			c0.418,0.336,0.844,0.672,1.262,1.008c1.532,1.61,2.402,3.738,2.435,5.96c-0.014,1.097-0.242,2.18-0.672,3.188
			c-0.427,1.017-1.023,1.953-1.763,2.771C382.568,377.881,380.421,378.758,378.189,378.739z"/>
		<path d="M411.763,378.739c-2.233,0.022-4.381-0.855-5.959-2.434c-0.765-0.816-1.39-1.752-1.852-2.77
			c-0.776-2.055-0.776-4.322,0-6.377c0.49-1.003,1.113-1.935,1.852-2.771c0.398-0.361,0.816-0.697,1.254-1.008
			c0.488-0.312,0.994-0.594,1.516-0.844c0.493-0.173,0.997-0.313,1.508-0.418c1.076-0.246,2.194-0.246,3.271,0
			c0.544,0.095,1.078,0.234,1.598,0.418c0.988,0.515,1.918,1.136,2.771,1.853c0.759,0.802,1.358,1.743,1.763,2.771
			c0.896,2.031,0.896,4.346,0,6.377c-0.764,2.108-2.424,3.768-4.532,4.532C413.943,378.497,412.86,378.726,411.763,378.739
			L411.763,378.739z"/>
	</g>
</g>
<g>
</g>
<g>
</g>
<g>
</g>
<g>
</g>
<g>
</g>
<g>
</g>
<g>
</g>
<g>
</g>
<g>
</g>
<g>
</g>
<g>
</g>
<g>
</g>
<g>
</g>
<g>
</g>
<g>
</g>
</svg>
